<svg width="80" height="80" viewBox="0 0 80 80" fill="none" xmlns="http://www.w3.org/2000/svg">
<rect width="80" height="80" rx="8" fill="#1E1E1E"/>
<path d="M37.8425 38.64C37.9705 39.152 38.0345 39.792 38.0345 40.56C38.0345 41.296 37.9705 41.936 37.8425 42.48C37.9705 42.992 38.0345 43.632 38.0345 44.4C38.0345 45.136 37.9705 45.776 37.8425 46.32H35.9225C36.0505 46.832 36.1145 47.472 36.1145 48.24C36.1145 48.976 36.0505 49.616 35.9225 50.16H34.0025C34.1305 50.672 34.1945 51.312 34.1945 52.08C34.1945 52.816 34.1305 53.456 34.0025 54H22.4825C22.3545 53.456 22.2905 52.816 22.2905 52.08C22.2905 51.312 22.3545 50.672 22.4825 50.16C22.3545 49.616 22.2905 48.976 22.2905 48.24C22.2905 47.472 22.3545 46.832 22.4825 46.32C22.3545 45.776 22.2905 45.136 22.2905 44.4C22.2905 43.632 22.3545 42.992 22.4825 42.48C22.3545 41.936 22.2905 41.296 22.2905 40.56C22.2905 39.792 22.3545 39.152 22.4825 38.64C22.3545 38.096 22.2905 37.456 22.2905 36.72C22.2905 35.952 22.3545 35.312 22.4825 34.8C22.3545 34.256 22.2905 33.616 22.2905 32.88C22.2905 32.112 22.3545 31.472 22.4825 30.96C22.3545 30.416 22.2905 29.776 22.2905 29.04C22.2905 28.272 22.3545 27.632 22.4825 27.12H34.0025C34.1305 27.632 34.1945 28.272 34.1945 29.04C34.1945 29.776 34.1305 30.416 34.0025 30.96H35.9225C36.0505 31.472 36.1145 32.112 36.1145 32.88C36.1145 33.616 36.0505 34.256 35.9225 34.8H37.8425C37.9705 35.312 38.0345 35.952 38.0345 36.72C38.0345 37.456 37.9705 38.096 37.8425 38.64ZM34.0025 46.32C33.8745 45.776 33.8105 45.136 33.8105 44.4C33.8105 43.632 33.8745 42.992 34.0025 42.48C33.8745 41.936 33.8105 41.296 33.8105 40.56C33.8105 39.792 33.8745 39.152 34.0025 38.64C33.8745 38.096 33.8105 37.456 33.8105 36.72C33.8105 35.952 33.8745 35.312 34.0025 34.8H32.0825C31.9545 34.256 31.8905 33.616 31.8905 32.88C31.8905 32.112 31.9545 31.472 32.0825 30.96H26.3225C26.4505 31.472 26.5145 32.112 26.5145 32.88C26.5145 33.616 26.4505 34.256 26.3225 34.8C26.4505 35.312 26.5145 35.952 26.5145 36.72C26.5145 37.456 26.4505 38.096 26.3225 38.64C26.4505 39.152 26.5145 39.792 26.5145 40.56C26.5145 41.296 26.4505 41.936 26.3225 42.48C26.4505 42.992 26.5145 43.632 26.5145 44.4C26.5145 45.136 26.4505 45.776 26.3225 46.32C26.4505 46.832 26.5145 47.472 26.5145 48.24C26.5145 48.976 26.4505 49.616 26.3225 50.16H32.0825C31.9545 49.616 31.8905 48.976 31.8905 48.24C31.8905 47.472 31.9545 46.832 32.0825 46.32H34.0025ZM57.0613 50.16C57.1893 50.672 57.2533 51.312 57.2533 52.08C57.2533 52.816 57.1893 53.456 57.0613 54H53.2213C53.0933 53.456 53.0293 52.816 53.0293 52.08C53.0293 51.312 53.0933 50.672 53.2213 50.16H51.7812C51.6533 49.616 51.5893 48.976 51.5893 48.24C51.5893 47.472 51.6533 46.832 51.7812 46.32H50.3413C50.2133 45.776 50.1493 45.136 50.1493 44.4C50.1493 43.632 50.2133 42.992 50.3413 42.48H45.5413C45.6693 42.992 45.7333 43.632 45.7333 44.4C45.7333 45.136 45.6693 45.776 45.5413 46.32C45.6693 46.832 45.7333 47.472 45.7333 48.24C45.7333 48.976 45.6693 49.616 45.5413 50.16C45.6693 50.672 45.7333 51.312 45.7333 52.08C45.7333 52.816 45.6693 53.456 45.5413 54H41.7013C41.5733 53.456 41.5093 52.816 41.5093 52.08C41.5093 51.312 41.5733 50.672 41.7013 50.16C41.5733 49.616 41.5093 48.976 41.5093 48.24C41.5093 47.472 41.5733 46.832 41.7013 46.32C41.5733 45.776 41.5093 45.136 41.5093 44.4C41.5093 43.632 41.5733 42.992 41.7013 42.48C41.5733 41.936 41.5093 41.296 41.5093 40.56C41.5093 39.792 41.5733 39.152 41.7013 38.64C41.5733 38.096 41.5093 37.456 41.5093 36.72C41.5093 35.952 41.5733 35.312 41.7013 34.8C41.5733 34.256 41.5093 33.616 41.5093 32.88C41.5093 32.112 41.5733 31.472 41.7013 30.96C41.5733 30.416 41.5093 29.776 41.5093 29.04C41.5093 28.272 41.5733 27.632 41.7013 27.12H55.1413C55.2693 27.632 55.3333 28.272 55.3333 29.04C55.3333 29.776 55.2693 30.416 55.1413 30.96H57.0613C57.1893 31.472 57.2533 32.112 57.2533 32.88C57.2533 33.616 57.1893 34.256 57.0613 34.8H56.1013C56.2293 35.312 56.2933 35.952 56.2933 36.72C56.2933 37.456 56.2293 38.096 56.1013 38.64H53.2213C53.3493 39.152 53.4133 39.792 53.4133 40.56C53.4133 41.296 53.3493 41.936 53.2213 42.48H54.1813C54.3093 42.992 54.3733 43.632 54.3733 44.4C54.3733 45.136 54.3093 45.776 54.1813 46.32H55.6213C55.7493 46.832 55.8133 47.472 55.8133 48.24C55.8133 48.976 55.7493 49.616 55.6213 50.16H57.0613ZM52.2613 38.64C52.1333 38.096 52.0693 37.456 52.0693 36.72C52.0693 35.952 52.1333 35.312 52.2613 34.8C52.1333 34.256 52.0693 33.616 52.0693 32.88C52.0693 32.112 52.1333 31.472 52.2613 30.96H45.5413C45.6693 31.472 45.7333 32.112 45.7333 32.88C45.7333 33.616 45.6693 34.256 45.5413 34.8C45.6693 35.312 45.7333 35.952 45.7333 36.72C45.7333 37.456 45.6693 38.096 45.5413 38.64H52.2613Z" fill="white"/>
</svg>
